<svg width="27" height="29" viewBox="0 0 27 29" fill="none" xmlns="http://www.w3.org/2000/svg">
<path d="M18.856 25.7436C18.952 25.4236 18.904 25.2316 18.712 25.1676C18.552 25.0716 18.36 24.9916 18.136 24.9276C17.944 24.8636 17.752 24.7996 17.56 24.7356C17.4 24.6396 17.368 24.4316 17.464 24.1116C17.56 23.7916 17.512 23.5996 17.32 23.5356C17.16 23.4396 16.968 23.3596 16.744 23.2956C16.552 23.2316 16.36 23.1676 16.168 23.1036C16.008 23.0076 15.976 22.7996 16.072 22.4796C16.168 22.1596 16.136 21.9516 15.976 21.8556C15.816 21.7596 15.624 21.6956 15.4 21.6636C15.176 21.5996 14.984 21.5196 14.824 21.4236C14.664 21.3276 14.632 21.1196 14.728 20.7996C14.824 20.4796 14.776 20.2716 14.584 20.1756C14.424 20.0796 14.232 20.0156 14.008 19.9836C13.816 19.9516 13.624 19.8876 13.432 19.7916C13.272 19.6956 13.24 19.4876 13.336 19.1676C13.016 19.1356 12.824 19.2156 12.76 19.4076C12.696 19.5676 12.648 19.7596 12.616 19.9836C12.616 20.2076 12.584 20.4156 12.52 20.6076C12.456 20.7676 12.264 20.8316 11.944 20.7996C11.624 20.7676 11.432 20.8476 11.368 21.0396C11.304 21.1996 11.256 21.3916 11.224 21.6156C11.224 21.8396 11.192 22.0476 11.128 22.2396C11.064 22.3996 10.872 22.4636 10.552 22.4316C10.232 22.3996 10.04 22.4796 9.976 22.6716C9.912 22.8636 9.88 23.0716 9.88 23.2956C9.88 23.4876 9.848 23.6796 9.784 23.8716C9.72 24.0636 9.528 24.1436 9.208 24.1116C8.888 24.0796 8.696 24.1596 8.632 24.3516C8.568 24.5116 8.52 24.7036 8.488 24.9276C8.488 25.1516 8.456 25.3596 8.392 25.5516C8.328 25.7116 8.136 25.7756 7.816 25.7436C7.304 25.4876 6.936 25.5036 6.712 25.7916C6.488 26.0476 6.296 26.3676 6.136 26.7516C5.976 27.1356 5.784 27.4556 5.56 27.7116C5.336 27.9996 4.968 28.0156 4.456 27.7596C4.392 27.3436 4.232 27.1356 3.976 27.1356C3.72 27.1036 3.448 27.1356 3.16 27.2316C2.872 27.2956 2.6 27.3276 2.344 27.3276C2.088 27.2956 1.928 27.0716 1.864 26.6556C2.12 26.3036 2.152 26.0316 1.96 25.8396C1.8 25.6476 1.576 25.4716 1.288 25.3116C1.032 25.1516 0.824 24.9756 0.664 24.7836C0.504 24.5916 0.536 24.3196 0.76 23.9676C1.336 23.8716 1.624 23.6636 1.624 23.3436C1.656 22.9916 1.624 22.6236 1.528 22.2396C1.464 21.8556 1.432 21.5036 1.432 21.1836C1.464 20.8316 1.768 20.6076 2.344 20.5116C2.696 20.5756 2.904 20.5116 2.968 20.3196C3.064 20.0956 3.128 19.8716 3.16 19.6476C3.192 19.3916 3.24 19.1676 3.304 18.9756C3.4 18.7516 3.624 18.6716 3.976 18.7356C4.328 18.7996 4.536 18.7356 4.6 18.5436C4.696 18.3196 4.76 18.0956 4.792 17.8716C4.824 17.6156 4.872 17.3916 4.936 17.1996C5.032 16.9756 5.256 16.8956 5.608 16.9596C5.96 17.0236 6.168 16.9596 6.232 16.7676C6.328 16.5756 6.376 16.3516 6.376 16.0956C6.408 15.8396 6.456 15.6156 6.52 15.4236C6.616 15.2316 6.84 15.1676 7.192 15.2316C7.544 15.2956 7.752 15.2316 7.816 15.0396C7.912 14.8156 7.976 14.5916 8.008 14.3676C8.04 14.1116 8.088 13.8876 8.152 13.6956C8.248 13.4716 8.472 13.3916 8.824 13.4556C8.888 13.1676 8.84 12.9916 8.68 12.9276C8.52 12.8316 8.344 12.7836 8.152 12.7836C7.96 12.7516 7.784 12.7036 7.624 12.6396C7.464 12.5436 7.416 12.3516 7.48 12.0636C7.512 11.7756 7.448 11.5996 7.288 11.5356C7.16 11.4716 6.984 11.4236 6.76 11.3916C6.568 11.3596 6.392 11.3116 6.232 11.2476C6.072 11.1836 6.024 11.0076 6.088 10.7196C6.152 10.4316 6.104 10.2556 5.944 10.1916C5.784 10.0956 5.608 10.0476 5.416 10.0476C5.224 10.0156 5.048 9.96758 4.888 9.90358C4.728 9.80758 4.68 9.61558 4.744 9.32758C4.808 9.03958 4.76 8.86358 4.6 8.79958C4.44 8.70358 4.264 8.65558 4.072 8.65558C3.88 8.62358 3.704 8.57558 3.544 8.51158C3.384 8.41558 3.336 8.22358 3.4 7.93558C3.656 7.48758 3.672 7.16758 3.448 6.97558C3.256 6.75158 3 6.55958 2.68 6.39958C2.36 6.20758 2.088 6.01558 1.864 5.82358C1.672 5.59958 1.704 5.26358 1.96 4.81558C2.408 4.71958 2.632 4.54358 2.632 4.28758C2.632 4.03158 2.584 3.75958 2.488 3.47158C2.424 3.18358 2.392 2.91158 2.392 2.65558C2.424 2.36758 2.648 2.17558 3.064 2.07958C3.416 2.30358 3.672 2.33558 3.832 2.17558C4.024 1.98358 4.184 1.75958 4.312 1.50358C4.44 1.24758 4.584 1.03958 4.744 0.879582C4.936 0.687583 5.208 0.703583 5.56 0.927582C5.624 1.47158 5.816 1.75958 6.136 1.79158C6.456 1.82358 6.792 1.80758 7.144 1.74358C7.528 1.67958 7.88 1.66358 8.2 1.69558C8.52 1.72758 8.712 2.01558 8.776 2.55958C8.68 2.91158 8.728 3.13558 8.92 3.23158C9.112 3.32758 9.32 3.40758 9.544 3.47158C9.8 3.53558 10.024 3.61558 10.216 3.71158C10.408 3.80758 10.456 4.03158 10.36 4.38358C10.264 4.73558 10.312 4.95958 10.504 5.05558C10.696 5.15158 10.904 5.23158 11.128 5.29558C11.352 5.35958 11.56 5.43958 11.752 5.53558C11.944 5.63158 11.992 5.85558 11.896 6.20758C11.8 6.55958 11.848 6.78358 12.04 6.87958C12.232 6.97558 12.44 7.05558 12.664 7.11958C12.92 7.18358 13.144 7.26358 13.336 7.35958C13.528 7.45558 13.576 7.67958 13.48 8.03158C13.8 8.06358 13.992 7.98358 14.056 7.79158C14.152 7.59958 14.2 7.39158 14.2 7.16758C14.2 6.91158 14.232 6.68758 14.296 6.49558C14.392 6.30358 14.6 6.22358 14.92 6.25558C15.24 6.28758 15.432 6.20758 15.496 6.01558C15.592 5.82358 15.64 5.61558 15.64 5.39158C15.64 5.13558 15.672 4.91158 15.736 4.71958C15.832 4.52758 16.04 4.44758 16.36 4.47958C16.68 4.51158 16.872 4.43158 16.936 4.23958C17.032 4.04758 17.08 3.83958 17.08 3.61558C17.08 3.35958 17.112 3.13558 17.176 2.94358C17.272 2.75158 17.48 2.67158 17.8 2.70358C18.28 2.92758 18.616 2.92758 18.808 2.70358C19.032 2.44758 19.224 2.14358 19.384 1.79158C19.544 1.43958 19.72 1.15158 19.912 0.927582C20.136 0.671583 20.488 0.655583 20.968 0.879582C21.064 1.32758 21.24 1.55158 21.496 1.55158C21.752 1.55158 22.04 1.51958 22.36 1.45558C22.68 1.39158 22.968 1.35958 23.224 1.35958C23.48 1.35958 23.656 1.58358 23.752 2.03158C23.496 2.41558 23.464 2.70358 23.656 2.89558C23.848 3.05558 24.072 3.21558 24.328 3.37558C24.584 3.53558 24.808 3.71158 25 3.90358C25.192 4.06358 25.16 4.33558 24.904 4.71958C24.36 4.78358 24.056 4.97558 23.992 5.29558C23.96 5.61558 23.976 5.96758 24.04 6.35158C24.136 6.73558 24.152 7.10358 24.088 7.45558C24.056 7.77558 23.768 7.96758 23.224 8.03158C22.84 7.96758 22.6 8.04758 22.504 8.27158C22.44 8.46358 22.392 8.68758 22.36 8.94358C22.328 9.19958 22.264 9.43958 22.168 9.66358C22.104 9.85558 21.88 9.91958 21.496 9.85558C21.112 9.79158 20.872 9.87158 20.776 10.0956C20.712 10.2876 20.664 10.5116 20.632 10.7676C20.632 11.0236 20.584 11.2636 20.488 11.4876C20.424 11.6796 20.2 11.7436 19.816 11.6796C19.432 11.6156 19.192 11.6956 19.096 11.9196C19.032 12.1116 18.984 12.3356 18.952 12.5916C18.92 12.8476 18.856 13.0876 18.76 13.3116C18.696 13.5036 18.472 13.5676 18.088 13.5036C17.992 13.8236 18.024 14.0316 18.184 14.1276C18.376 14.2236 18.584 14.3036 18.808 14.3676C19.064 14.4316 19.272 14.5116 19.432 14.6076C19.624 14.7036 19.672 14.9116 19.576 15.2316C19.48 15.5516 19.528 15.7596 19.72 15.8556C19.912 15.9516 20.12 16.0316 20.344 16.0956C20.568 16.1276 20.776 16.1916 20.968 16.2876C21.16 16.3516 21.208 16.5596 21.112 16.9116C21.016 17.2316 21.048 17.4396 21.208 17.5356C21.4 17.6316 21.608 17.7116 21.832 17.7756C22.088 17.8396 22.296 17.9196 22.456 18.0156C22.648 18.1116 22.696 18.3196 22.6 18.6396C22.504 18.9916 22.552 19.2156 22.744 19.3116C22.936 19.3756 23.144 19.4396 23.368 19.5036C23.592 19.5356 23.8 19.5996 23.992 19.6956C24.184 19.7916 24.232 19.9996 24.136 20.3196C23.816 20.8636 23.784 21.2796 24.04 21.5676C24.328 21.8236 24.664 22.0476 25.048 22.2396C25.432 22.4316 25.752 22.6716 26.008 22.9596C26.296 23.2156 26.28 23.6156 25.96 24.1596C25.544 24.2556 25.336 24.4316 25.336 24.6876C25.336 24.9116 25.368 25.1676 25.432 25.4556C25.496 25.7116 25.528 25.9676 25.528 26.2236C25.528 26.4476 25.32 26.6076 24.904 26.7036C24.584 26.4796 24.328 26.4476 24.136 26.6076C23.944 26.7676 23.784 26.9756 23.656 27.2316C23.528 27.4876 23.368 27.6956 23.176 27.8556C22.984 28.0156 22.728 27.9836 22.408 27.7596C22.344 27.1516 22.136 26.8156 21.784 26.7516C21.432 26.6876 21.048 26.6876 20.632 26.7516C20.216 26.8156 19.832 26.8156 19.48 26.7516C19.128 26.6876 18.92 26.3516 18.856 25.7436Z" fill="#5F5789"/>
</svg>
